<svg width="272" height="48" viewBox="0 0 272 48" fill="none" xmlns="http://www.w3.org/2000/svg">
<rect width="272" height="48.001" rx="8" fill="#FAFBFB"/>
<rect x="58" width="156" height="48.001" rx="8" fill="#FAFBFB"/>
<path d="M84.732 30V18.64H88.94C90.2627 18.64 91.2493 18.9867 91.9 19.68C92.5613 20.3627 92.892 21.2747 92.892 22.416C92.892 23.632 92.5187 24.5547 91.772 25.184C91.0253 25.8027 90.0067 26.112 88.716 26.112H86.956V30H84.732ZM86.956 24.128H88.476C89.1587 24.128 89.676 23.9733 90.028 23.664C90.38 23.344 90.556 22.9173 90.556 22.384C90.556 21.84 90.3853 21.4133 90.044 21.104C89.7133 20.7947 89.228 20.64 88.588 20.64H86.956V24.128ZM97.6794 30.144C96.5914 30.144 95.6954 29.7707 94.9914 29.024C94.298 28.2773 93.9514 27.3067 93.9514 26.112C93.9514 24.9387 94.298 23.9733 94.9914 23.216C95.6954 22.448 96.5754 22.064 97.6314 22.064C98.602 22.064 99.37 22.4053 99.9354 23.088L99.9674 23.072V22.176H102.063V30H100.063V29.072L100.031 29.056C99.466 29.7813 98.682 30.144 97.6794 30.144ZM98.0794 28.256C98.634 28.256 99.1034 28.0587 99.4874 27.664C99.8714 27.2693 100.063 26.7573 100.063 26.128C100.063 25.4987 99.8714 24.976 99.4874 24.56C99.114 24.144 98.6447 23.936 98.0794 23.936C97.5034 23.936 97.0234 24.1387 96.6394 24.544C96.266 24.9387 96.0794 25.4667 96.0794 26.128C96.0794 26.7573 96.266 27.2693 96.6394 27.664C97.0127 28.0587 97.4927 28.256 98.0794 28.256ZM105 33.168L106.392 29.52L103.256 22.176H105.496L107.4 26.976H107.432L109.208 22.176H111.336L107.128 33.168H105ZM118.631 30L115.991 22.176H118.103L119.607 26.96H119.623L121.015 22.176H122.695L124.103 26.96H124.135L125.623 22.176H127.719L125.063 30H123.255L121.847 25.248H121.831L120.439 30H118.631ZM130.208 21.12C129.824 21.12 129.504 20.9973 129.248 20.752C129.003 20.496 128.88 20.1867 128.88 19.824C128.88 19.472 129.003 19.1733 129.248 18.928C129.504 18.672 129.824 18.544 130.208 18.544C130.581 18.544 130.896 18.672 131.152 18.928C131.408 19.1733 131.536 19.472 131.536 19.824C131.536 20.1867 131.408 20.496 131.152 20.752C130.896 20.9973 130.581 21.12 130.208 21.12ZM129.136 30V22.176H131.232V30H129.136ZM135.831 30.144C135.138 30.144 134.594 29.9253 134.199 29.488C133.804 29.04 133.607 28.3893 133.607 27.536V23.92H132.679V22.176H133.607V19.632L135.703 19.408V22.176H137.815V23.92H135.703V27.232C135.703 27.584 135.751 27.84 135.847 28C135.954 28.16 136.13 28.24 136.375 28.24C136.674 28.24 137.004 28.1493 137.367 27.968L137.895 29.648C137.287 29.9787 136.599 30.144 135.831 30.144ZM139.321 30V18.224H141.417V23.12H141.433C142.073 22.416 142.927 22.064 143.993 22.064C145.903 22.064 146.857 23.1467 146.857 25.312V30H144.761V25.84C144.761 25.1467 144.633 24.656 144.377 24.368C144.132 24.08 143.753 23.936 143.241 23.936C142.665 23.936 142.217 24.1173 141.897 24.48C141.577 24.832 141.417 25.3547 141.417 26.048V30H139.321Z" fill="#D1D1D7"/>
<path fill-rule="evenodd" clip-rule="evenodd" d="M186.749 15.873C186.739 13.5942 184.888 11.75 182.607 11.75C182.04 11.75 181.485 11.8577 181.008 12.07L165.914 18.48C163.763 19.3898 162.25 21.5216 162.25 24.0002V32.1075C162.25 34.395 164.104 36.25 166.393 36.25C166.973 36.25 167.525 36.1299 168.027 35.9143L183.057 29.5327C185.223 28.629 186.75 26.4901 186.75 24.0002L186.749 15.873Z" fill="#D1D1D7"/>
<path fill-rule="evenodd" clip-rule="evenodd" d="M172.863 27.2635C172.687 27.2635 172.544 27.1055 172.544 26.9106V19.4548C172.544 19.2598 172.687 19.1016 172.863 19.1016C173.039 19.1016 173.182 19.2598 173.182 19.4548V26.9106C173.182 27.1055 173.039 27.2635 172.863 27.2635Z" fill="#FAFBFB" stroke="#FAFBFB" stroke-width="0.3"/>
<path fill-rule="evenodd" clip-rule="evenodd" d="M175.633 26.929V21.0995C175.633 20.9022 175.49 20.7422 175.313 20.7422C175.138 20.7422 174.995 20.9022 174.995 21.0995V26.929C174.995 27.1264 175.138 27.2865 175.313 27.2865C175.49 27.2865 175.633 27.1264 175.633 26.929Z" fill="#FAFBFB" stroke="#FAFBFB" stroke-width="0.3"/>
<path fill-rule="evenodd" clip-rule="evenodd" d="M175.633 19.4294V19.4111C175.633 19.2402 175.49 19.1016 175.313 19.1016C175.138 19.1016 174.995 19.2402 174.995 19.4111V19.4294C174.995 19.6004 175.138 19.7388 175.313 19.7388C175.49 19.7388 175.633 19.6004 175.633 19.4294Z" fill="#FAFBFB" stroke="#FAFBFB" stroke-width="0.3"/>
<path fill-rule="evenodd" clip-rule="evenodd" d="M170.649 26.476C170.79 26.3365 170.79 26.1101 170.649 25.9707C170.509 25.8309 170.281 25.8309 170.14 25.9707C169.101 27.0006 167.411 27.0006 166.372 25.9707C165.333 24.9393 165.333 23.2622 166.372 22.2316C166.875 21.7324 167.545 21.4574 168.256 21.4574C168.968 21.4574 169.637 21.7324 170.14 22.2316C170.281 22.3715 170.509 22.3715 170.649 22.2316C170.79 22.0917 170.79 21.8657 170.649 21.7259C170.01 21.0915 169.16 20.7422 168.256 20.7422C167.352 20.7422 166.502 21.0915 165.862 21.7259C164.543 23.0353 164.543 25.1659 165.862 26.476C166.522 27.1309 167.389 27.458 168.256 27.458C169.123 27.458 169.989 27.1309 170.649 26.476Z" fill="#FAFBFB" stroke="#FAFBFB" stroke-width="0.3"/>
<path fill-rule="evenodd" clip-rule="evenodd" d="M178.161 28.719V24.0932C178.161 22.6389 179.347 21.4555 180.804 21.4555C182.262 21.4555 183.448 22.6389 183.448 24.0932C183.448 25.5478 182.262 26.7307 180.804 26.7307C179.964 26.7307 179.395 26.4103 179.391 26.4084C179.221 26.3088 179.001 26.3652 178.902 26.5353C178.802 26.7056 178.859 26.9239 179.029 27.024C179.059 27.0411 179.76 27.4442 180.804 27.4442C182.656 27.4442 184.162 25.9409 184.162 24.0932C184.162 22.2454 182.656 20.7422 180.804 20.7422C178.953 20.7422 177.446 22.2454 177.446 24.0932V28.719C177.446 28.9157 177.607 29.0757 177.804 29.0757C178.001 29.0757 178.161 28.9157 178.161 28.719Z" fill="#FAFBFB" stroke="#FAFBFB" stroke-width="0.3"/>
<path fill-rule="evenodd" clip-rule="evenodd" d="M186.687 31.0841C186.687 31.6529 186.226 32.1136 185.657 32.1136C185.089 32.1136 184.628 31.6529 184.628 31.0841C184.628 30.5154 185.089 30.0547 185.657 30.0547C186.226 30.0547 186.687 30.5154 186.687 31.0841ZM186.525 31.0841C186.525 30.6007 186.135 30.2054 185.657 30.2054C185.18 30.2054 184.793 30.6007 184.793 31.0841C184.793 31.5676 185.18 31.9628 185.657 31.9628C186.135 31.9628 186.525 31.5676 186.525 31.0841ZM186.09 31.6472H185.908L185.649 31.1865H185.478V31.6472H185.322V30.5182H185.706C185.902 30.5182 186.061 30.6661 186.061 30.8566C186.061 31.0216 185.959 31.1239 185.82 31.1666L186.09 31.6472ZM185.902 30.8566C185.902 30.7429 185.814 30.6576 185.689 30.6576H185.478V31.0528H185.689C185.814 31.0528 185.902 30.9704 185.902 30.8566Z" fill="#D1D1D7"/>
</svg>
